<svg viewBox="0 0 1600 1180" xmlns="http://www.w3.org/2000/svg" font-family="'Space Grotesk', 'Segoe UI', system-ui, sans-serif">
  <defs>
    <radialGradient id="sky" cx="72%" cy="0%" r="90%">
      <stop offset="0%" stop-color="#28336a"/>
      <stop offset="62%" stop-color="#0c1120"/>
    </radialGradient>
    <linearGradient id="panel" x1="0" y1="0" x2="0" y2="1">
      <stop offset="0" stop-color="#2d2d2d"/><stop offset="1" stop-color="#272727"/>
    </linearGradient>
    <marker id="ar" markerWidth="8" markerHeight="8" refX="4" refY="4" orient="auto">
      <path d="M1,1 L7,4 L1,7" fill="none" stroke="#E5326E" stroke-width="1.3"/>
    </marker>
    <marker id="arS" markerWidth="7" markerHeight="7" refX="3.5" refY="3.5" orient="auto">
      <path d="M6,1 L1,3.5 L6,6" fill="none" stroke="#E5326E" stroke-width="1.3"/>
    </marker>
  </defs>

  <!-- ============ FIGMA CHROME ============ -->
  <rect width="1600" height="1180" fill="#1e1e1e"/>
  <!-- top toolbar -->
  <rect width="1600" height="46" fill="#2c2c2c"/>
  <line x1="0" y1="46" x2="1600" y2="46" stroke="#3a3a3a"/>
  <g fill="#cfcfcf" font-size="13">
    <circle cx="26" cy="23" r="9" fill="#0d99ff"/>
    <text x="20" y="27" font-size="11" fill="#fff" font-weight="700">N</text>
    <text x="50" y="27" fill="#e6e6e6" font-weight="600">Northstar — Web.fig</text>
    <text x="220" y="27" fill="#8a8a8a" font-size="12">Assets</text>
    <g fill="#8a8a8a" font-size="14">
      <text x="690" y="28">▷</text><text x="730" y="28" fill="#cfcfcf">◇ Frame</text>
      <text x="820" y="28">✎</text><text x="860" y="28">T</text>
    </g>
  </g>
  <g fill="#cfcfcf" font-size="12">
    <rect x="1420" y="12" width="56" height="22" rx="4" fill="#0d99ff"/>
    <text x="1432" y="27" fill="#fff" font-weight="600">Share</text>
    <text x="1494" y="27" fill="#8a8a8a">▶ Present</text>
  </g>

  <!-- ============ LEFT: LAYERS PANEL ============ -->
  <rect x="0" y="46" width="250" height="1134" fill="url(#panel)"/>
  <line x1="250" y1="46" x2="250" y2="1180" stroke="#3a3a3a"/>
  <text x="16" y="74" fill="#9a9a9a" font-size="11" letter-spacing="1.2">LAYERS</text>
  <g font-size="12.5" fill="#d2d2d2">
    <text x="16" y="100" fill="#0d99ff">▸ # Page 1 / Northstar</text>
    <g fill="#c7c7c7">
      <text x="30" y="126">▾ ▢ Header  <tspan fill="#7d7d7d" font-size="11">· auto-layout →</tspan></text>
      <text x="48" y="148" fill="#a9a9a9">🔭 Logo</text>
      <text x="48" y="168" fill="#a9a9a9">▾ Nav · Events / Schedule / Join</text>

      <text x="30" y="194">▾ ▢ Hero</text>
      <text x="48" y="214" fill="#a9a9a9">T Eyebrow</text>
      <text x="48" y="234" fill="#a9a9a9">T H1 “Look up with us.”</text>
      <text x="48" y="254" fill="#a9a9a9">T Subtext</text>
      <text x="48" y="274" fill="#a9a9a9">▭ Button · “Join the club”</text>
      <text x="48" y="294" fill="#a9a9a9">✦ Stars (decorative)</text>

      <text x="30" y="320">▾ ▢ Main</text>
      <text x="48" y="342" fill="#0d99ff">▾ ▢ Section · Events  <tspan fill="#7d7d7d" font-size="11">grid</tspan></text>
      <text x="66" y="362" fill="#a9a9a9">▭ Card · Article ×4</text>
      <text x="48" y="386" fill="#a9a9a9">▾ ▢ Section · Schedule</text>
      <text x="66" y="406" fill="#8f8f8f">▦ Table · thead + 4 rows</text>
      <text x="48" y="430" fill="#a9a9a9">▾ ▢ Section · Join</text>
      <text x="66" y="450" fill="#8f8f8f">▭ Form · 5 fields + button</text>

      <text x="30" y="476">▢ Footer</text>
    </g>
  </g>
  <line x1="16" y1="500" x2="234" y2="500" stroke="#3a3a3a"/>
  <text x="16" y="524" fill="#9a9a9a" font-size="11" letter-spacing="1.2">PAGES</text>
  <text x="16" y="548" fill="#0d99ff" font-size="12.5">● Desktop · 1440</text>
  <text x="16" y="570" fill="#9a9a9a" font-size="12.5">○ Mobile · 375</text>

  <!-- the assignment note pinned in the layers panel -->
  <rect x="14" y="980" width="222" height="180" rx="8" fill="#3a2030" stroke="#E5326E" stroke-opacity=".5"/>
  <text x="26" y="1006" fill="#ff86b0" font-size="11" letter-spacing="1">📌 ASSIGNMENT</text>
  <g fill="#e9c9d6" font-size="11.5">
    <text x="26" y="1030">Rebuild this exact design</text>
    <text x="26" y="1050">with hand-written</text>
    <text x="26" y="1070" fill="#fff" font-weight="700">HTML + external CSS.</text>
    <text x="26" y="1096" fill="#c9a9b8">No frameworks. Semantic</text>
    <text x="26" y="1114" fill="#c9a9b8">tags. Mobile-first &amp;</text>
    <text x="26" y="1132" fill="#c9a9b8">responsive. Match the</text>
    <text x="26" y="1150" fill="#c9a9b8">tokens on the right →</text>
  </g>

  <!-- ============ CANVAS ============ -->
  <rect x="250" y="46" width="1090" height="1134" fill="#e9e9ec"/>

  <!-- canvas heading -->
  <text x="300" y="84" fill="#3a3a3a" font-size="18" font-weight="700">Build this page → index.html + styles.css</text>
  <text x="300" y="104" fill="#8a8a8a" font-size="12.5">Red marks = spec to match · Blue = selected frame measurements</text>

  <!-- ==== DESKTOP ARTBOARD ==== -->
  <text x="300" y="132" fill="#0d99ff" font-size="13" font-weight="600">🖥  Northstar — Desktop</text>
  <text x="978" y="132" fill="#8a8a8a" font-size="12" text-anchor="end">1440 × auto</text>

  <g>
    <!-- artboard bg + frame -->
    <rect x="300" y="142" width="678" height="876" rx="3" fill="#ffffff" stroke="#d4d4d4"/>

    <!-- header -->
    <rect x="300" y="142" width="678" height="42" fill="#0c1120"/>
    <text x="318" y="168" fill="#ffffff" font-size="13" font-weight="700">🔭 Northstar</text>
    <g fill="#a9c2ff" font-size="11.5" text-anchor="end">
      <text x="960" y="167">Join</text><text x="912" y="167">Schedule</text><text x="838" y="167">Events</text>
    </g>

    <!-- hero -->
    <rect x="300" y="184" width="678" height="150" fill="url(#sky)"/>
    <g fill="#fff">
      <circle cx="360" cy="206" r="1.6"/><circle cx="520" cy="220" r="2"/><circle cx="700" cy="200" r="1.4"/><circle cx="860" cy="232" r="1.8"/><circle cx="930" cy="208" r="1.4"/><circle cx="430" cy="250" r="1.6"/>
    </g>
    <text x="639" y="224" fill="#a9c2ff" font-size="9.5" text-anchor="middle" letter-spacing="2">CEDAR HILL · EVERY CLEAR FRIDAY</text>
    <text x="639" y="258" fill="#ffffff" font-size="26" font-weight="700" text-anchor="middle">Look up with us.</text>
    <text x="639" y="282" fill="#c3cdf0" font-size="11" text-anchor="middle">A community of stargazers meeting every clear Friday night.</text>
    <rect x="582" y="296" width="114" height="28" rx="8" fill="#3b45c7"/>
    <text x="639" y="314" fill="#fff" font-size="11" font-weight="600" text-anchor="middle">Join the club</text>

    <!-- main bg -->
    <rect x="300" y="334" width="678" height="644" fill="#f5f7fc"/>

    <!-- events -->
    <text x="338" y="372" fill="#16203a" font-size="15" font-weight="700">Upcoming events</text>
    <!-- 3 cards (+1 wraps, shown as note) -->
    <g>
      <!-- card 1 -->
      <rect x="338" y="386" width="196" height="96" rx="10" fill="#fff" stroke="#dde3f0"/>
      <rect x="498" y="396" width="28" height="13" rx="6.5" fill="#3b45c7"/>
      <text x="512" y="406" fill="#fff" font-size="7.5" text-anchor="middle">New</text>
      <text x="352" y="412" fill="#16203a" font-size="12" font-weight="700">Jupiter night</text>
      <text x="352" y="430" fill="#3b45c7" font-size="10" font-weight="600">Apr 12</text>
      <text x="352" y="450" fill="#55607a" font-size="9.5">The gas giant and its</text>
      <text x="352" y="463" fill="#55607a" font-size="9.5">four Galilean moons.</text>
      <!-- card 2 -->
      <rect x="542" y="386" width="196" height="96" rx="10" fill="#fff" stroke="#dde3f0"/>
      <text x="556" y="412" fill="#16203a" font-size="12" font-weight="700">Lunar close-up</text>
      <text x="556" y="430" fill="#3b45c7" font-size="10" font-weight="600">Apr 26</text>
      <text x="556" y="450" fill="#55607a" font-size="9.5">Craters along the</text>
      <text x="556" y="463" fill="#55607a" font-size="9.5">terminator.</text>
      <!-- card 3 -->
      <rect x="746" y="386" width="196" height="96" rx="10" fill="#fff" stroke="#dde3f0"/>
      <text x="760" y="412" fill="#16203a" font-size="12" font-weight="700">Saturn's rings</text>
      <text x="760" y="430" fill="#3b45c7" font-size="10" font-weight="600">May 10</text>
      <text x="760" y="450" fill="#55607a" font-size="9.5">The biggest “wow”</text>
      <text x="760" y="463" fill="#55607a" font-size="9.5">for newcomers.</text>
    </g>
    <text x="942" y="478" fill="#8a93a8" font-size="9" text-anchor="end">+ 1 more wraps ↩</text>

    <!-- schedule -->
    <text x="338" y="520" fill="#16203a" font-size="15" font-weight="700">Spring schedule</text>
    <g>
      <rect x="338" y="534" width="604" height="124" rx="8" fill="#fff" stroke="#dde3f0"/>
      <rect x="338" y="534" width="604" height="26" fill="#16203a"/>
      <g fill="#eaf0ff" font-size="10" font-weight="600"><text x="352" y="551">DATE</text><text x="552" y="551">LOCATION</text><text x="752" y="551">TARGET</text></g>
      <g font-size="10" fill="#1a2230">
        <text x="352" y="577">Apr 12</text><text x="552" y="577">Cedar Hill</text><text x="752" y="577">Jupiter</text>
        <rect x="338" y="586" width="604" height="24" fill="#f1f4fb"/>
        <text x="352" y="602">Apr 26</text><text x="552" y="602">Cedar Hill</text><text x="752" y="602">The Moon</text>
        <text x="352" y="627">May 10</text><text x="552" y="627">Dunes Park</text><text x="752" y="627">Saturn</text>
        <rect x="338" y="636" width="604" height="22" fill="#f1f4fb"/>
        <text x="352" y="651">May 24</text><text x="552" y="651">Cedar Hill</text><text x="752" y="651">Globular clusters</text>
      </g>
    </g>

    <!-- join form -->
    <text x="338" y="700" fill="#16203a" font-size="15" font-weight="700">Join the club</text>
    <rect x="338" y="714" width="300" height="208" rx="10" fill="#fff" stroke="#dde3f0"/>
    <g>
      <text x="354" y="736" fill="#16203a" font-size="9.5" font-weight="600">Name</text>
      <rect x="354" y="742" width="268" height="24" rx="6" fill="#fff" stroke="#c4ccdd"/>
      <text x="354" y="784" fill="#16203a" font-size="9.5" font-weight="600">Email</text>
      <rect x="354" y="790" width="268" height="24" rx="6" fill="#fff" stroke="#c4ccdd"/>
      <text x="354" y="832" fill="#16203a" font-size="9.5" font-weight="600">Experience</text>
      <rect x="354" y="838" width="268" height="24" rx="6" fill="#fff" stroke="#c4ccdd"/>
      <text x="610" y="854" fill="#8a93a8" font-size="11" text-anchor="end">▾</text>
      <rect x="354" y="874" width="268" height="34" rx="8" fill="#3b45c7"/>
      <text x="488" y="896" fill="#fff" font-size="11" font-weight="600" text-anchor="middle">Join the club</text>
    </g>

    <!-- footer -->
    <rect x="300" y="978" width="678" height="40" fill="#0c1120"/>
    <text x="639" y="996" fill="#8c97b8" font-size="9.5" text-anchor="middle">Northstar Astronomy Club · Cedar Hill · hi@northstar.club</text>
    <text x="639" y="1010" fill="#6b7798" font-size="8.5" text-anchor="middle">© 2026 Northstar · Built with HTML &amp; CSS.</text>
  </g>

  <!-- ===== BLUE SELECTION on events grid (Figma-style measure) ===== -->
  <rect x="336" y="384" width="608" height="100" fill="none" stroke="#0d99ff" stroke-width="1.2"/>
  <rect x="534" y="420" width="8" height="14" fill="#0d99ff" fill-opacity=".18" stroke="#0d99ff" stroke-width=".8"/>
  <rect x="600" y="486" width="120" height="16" rx="3" fill="#0d99ff"/>
  <text x="660" y="498" fill="#fff" font-size="10" text-anchor="middle">grid · 3 × 1fr · gap 16</text>

  <!-- ===== RED-LINE ANNOTATIONS ===== -->
  <g stroke="#E5326E" fill="#E5326E" font-size="10.5">
    <!-- container width dimension (top) -->
    <line x1="300" y1="125" x2="978" y2="125" stroke-width="1" marker-start="url(#arS)" marker-end="url(#ar)"/>
    <rect x="566" y="116" width="146" height="16" rx="3" fill="#fff" stroke="#E5326E" stroke-width=".8"/>
    <text x="639" y="128" text-anchor="middle" stroke="none">max-width 1140 · centered</text>

    <!-- hero vertical padding (left edge) -->
    <line x1="290" y1="184" x2="290" y2="334" stroke-width="1" marker-start="url(#arS)" marker-end="url(#ar)"/>
    <text x="285" y="262" text-anchor="end" stroke="none">hero</text>
    <text x="285" y="276" text-anchor="end" stroke="none">pad 64</text>

    <!-- card gap callout -->
    <line x1="538" y1="500" x2="538" y2="478" stroke-width="1"/>
    <text x="538" y="514" text-anchor="middle" stroke="none">gap 16</text>

    <!-- leader: H1 -->
    <line x1="639" y1="252" x2="639" y2="252" stroke-width="0"/>
    <line x1="700" y1="250" x2="996" y2="250" stroke-width="1" marker-start="url(#arS)"/>
    <rect x="996" y="234" width="0" height="0"/>

    <!-- radius callout on card -->
    <path d="M338 396 q0 -10 10 -10" fill="none" stroke-width="1.4"/>
    <line x1="332" y1="392" x2="312" y2="372" stroke-width="1"/>
    <text x="308" y="370" text-anchor="end" stroke="none">radius 10</text>

    <!-- button callout -->
    <line x1="582" y1="310" x2="540" y2="310" stroke-width="1" marker-end="url(#arS)"/>
  </g>

  <!-- right-gutter spec leaders (between artboards) -->
  <g font-size="10" fill="#9a3a5c">
    <rect x="990" y="244" width="0" height="0"/>
    <text x="996" y="248" fill="#b03a60" font-weight="600">H1</text>
    <text x="996" y="262" fill="#7a5563">Space Grotesk 700</text>
    <text x="996" y="275" fill="#7a5563">clamp(2rem,6vw,3.25rem)</text>
    <text x="996" y="314" fill="#b03a60" font-weight="600">Button</text>
    <text x="996" y="328" fill="#7a5563">indigo · radius 10</text>
    <text x="996" y="341" fill="#7a5563">:hover scale + shadow</text>
    <text x="996" y="556" fill="#b03a60" font-weight="600">Table</text>
    <text x="996" y="570" fill="#7a5563">navy thead</text>
    <text x="996" y="583" fill="#7a5563">:nth-child(even) stripe</text>
    <text x="996" y="742" fill="#b03a60" font-weight="600">Form</text>
    <text x="996" y="756" fill="#7a5563">&lt;label for&gt; + required</text>
    <text x="996" y="769" fill="#7a5563">visible :focus ring</text>
  </g>

  <!-- ==== MOBILE ARTBOARD ==== -->
  <text x="1086" y="392" fill="#0d99ff" font-size="12" font-weight="600">📱 Mobile · 375</text>
  <g>
    <rect x="1086" y="402" width="190" height="470" rx="10" fill="#fff" stroke="#d4d4d4"/>
    <rect x="1086" y="402" width="190" height="26" rx="10" fill="#0c1120"/>
    <rect x="1086" y="416" width="190" height="12" fill="#0c1120"/>
    <text x="1098" y="419" fill="#fff" font-size="9" font-weight="700">🔭 Northstar</text>
    <text x="1264" y="419" fill="#a9c2ff" font-size="8" text-anchor="end">☰</text>
    <!-- hero -->
    <rect x="1086" y="428" width="190" height="86" fill="url(#sky)"/>
    <text x="1181" y="466" fill="#fff" font-size="13" font-weight="700" text-anchor="middle">Look up</text>
    <text x="1181" y="482" fill="#fff" font-size="13" font-weight="700" text-anchor="middle">with us.</text>
    <rect x="1141" y="492" width="80" height="16" rx="6" fill="#3b45c7"/>
    <text x="1181" y="503" fill="#fff" font-size="8" text-anchor="middle">Join the club</text>
    <!-- main: 1-col cards stacked -->
    <rect x="1086" y="514" width="190" height="358" fill="#f5f7fc"/>
    <text x="1100" y="534" fill="#16203a" font-size="10" font-weight="700">Upcoming events</text>
    <rect x="1100" y="542" width="162" height="44" rx="7" fill="#fff" stroke="#dde3f0"/>
    <text x="1110" y="560" fill="#16203a" font-size="9" font-weight="700">Jupiter night</text>
    <text x="1110" y="574" fill="#3b45c7" font-size="8">Apr 12</text>
    <rect x="1100" y="592" width="162" height="44" rx="7" fill="#fff" stroke="#dde3f0"/>
    <text x="1110" y="610" fill="#16203a" font-size="9" font-weight="700">Lunar close-up</text>
    <text x="1110" y="624" fill="#3b45c7" font-size="8">Apr 26</text>
    <text x="1100" y="660" fill="#16203a" font-size="10" font-weight="700">Spring schedule</text>
    <rect x="1100" y="668" width="162" height="46" rx="6" fill="#fff" stroke="#dde3f0"/>
    <rect x="1100" y="668" width="162" height="14" fill="#16203a"/>
    <text x="1100" y="734" fill="#16203a" font-size="10" font-weight="700">Join the club</text>
    <rect x="1100" y="742" width="162" height="14" rx="4" fill="#fff" stroke="#c4ccdd"/>
    <rect x="1100" y="760" width="162" height="14" rx="4" fill="#fff" stroke="#c4ccdd"/>
    <rect x="1100" y="778" width="162" height="18" rx="5" fill="#3b45c7"/>
    <rect x="1086" y="856" width="190" height="16" fill="#0c1120"/>
  </g>
  <!-- mobile redline -->
  <g stroke="#E5326E" fill="#E5326E" font-size="9.5">
    <line x1="1086" y1="884" x2="1276" y2="884" stroke-width="1" marker-start="url(#arS)" marker-end="url(#ar)"/>
    <text x="1181" y="900" text-anchor="middle" stroke="none">@media &lt;640px → 1 column</text>
  </g>

  <!-- ============ RIGHT: DESIGN / INSPECT PANEL ============ -->
  <rect x="1340" y="46" width="260" height="1134" fill="url(#panel)"/>
  <line x1="1340" y1="46" x2="1340" y2="1180" stroke="#3a3a3a"/>
  <g font-size="12">
    <text x="1360" y="74" fill="#e6e6e6" font-size="13" font-weight="700">Design</text>
    <text x="1470" y="74" fill="#6f6f6f" font-size="13">Inspect</text>
    <line x1="1356" y1="86" x2="1584" y2="86" stroke="#3a3a3a"/>

    <!-- COLORS -->
    <text x="1360" y="112" fill="#9a9a9a" font-size="11" letter-spacing="1">COLOR STYLES</text>
    <g font-size="11.5">
      <rect x="1360" y="122" width="18" height="18" rx="4" fill="#0c1120" stroke="#555"/>
      <text x="1386" y="135" fill="#d6d6d6">--space</text><text x="1584" y="135" fill="#8a8a8a" text-anchor="end">#0C1120</text>
      <rect x="1360" y="146" width="18" height="18" rx="4" fill="#3b45c7"/>
      <text x="1386" y="159" fill="#d6d6d6">--indigo</text><text x="1584" y="159" fill="#8a8a8a" text-anchor="end">#3B45C7</text>
      <rect x="1360" y="170" width="18" height="18" rx="4" fill="#a9c2ff"/>
      <text x="1386" y="183" fill="#d6d6d6">--star</text><text x="1584" y="183" fill="#8a8a8a" text-anchor="end">#A9C2FF</text>
      <rect x="1360" y="194" width="18" height="18" rx="4" fill="#16203a" stroke="#555"/>
      <text x="1386" y="207" fill="#d6d6d6">--ink</text><text x="1584" y="207" fill="#8a8a8a" text-anchor="end">#16203A</text>
      <rect x="1360" y="218" width="18" height="18" rx="4" fill="#f5f7fc" stroke="#555"/>
      <text x="1386" y="231" fill="#d6d6d6">--paper</text><text x="1584" y="231" fill="#8a8a8a" text-anchor="end">#F5F7FC</text>
      <rect x="1360" y="242" width="18" height="18" rx="4" fill="#dde3f0" stroke="#555"/>
      <text x="1386" y="255" fill="#d6d6d6">--line</text><text x="1584" y="255" fill="#8a8a8a" text-anchor="end">#DDE3F0</text>
    </g>
    <line x1="1356" y1="278" x2="1584" y2="278" stroke="#3a3a3a"/>

    <!-- TYPE -->
    <text x="1360" y="304" fill="#9a9a9a" font-size="11" letter-spacing="1">TEXT STYLES</text>
    <g font-size="11.5" fill="#d6d6d6">
      <text x="1360" y="328" font-weight="700" font-size="14">Aa</text>
      <text x="1392" y="322" fill="#e6e6e6">Display — Space Grotesk</text>
      <text x="1392" y="337" fill="#8a8a8a" font-size="10.5">700 / 600 · headings, buttons</text>
      <text x="1360" y="364" font-family="Georgia,serif" font-size="14">Aa</text>
      <text x="1392" y="358" fill="#e6e6e6">Body — Newsreader</text>
      <text x="1392" y="373" fill="#8a8a8a" font-size="10.5">400 / 500 · paragraphs</text>
      <text x="1360" y="398" fill="#8a8a8a" font-size="10.5">H1</text><text x="1392" y="398" fill="#c9c9c9" font-size="10.5">clamp(2rem, 6vw, 3.25rem) / 700</text>
      <text x="1360" y="416" fill="#8a8a8a" font-size="10.5">H2</text><text x="1392" y="416" fill="#c9c9c9" font-size="10.5">1.5rem / 700</text>
      <text x="1360" y="434" fill="#8a8a8a" font-size="10.5">Body</text><text x="1392" y="434" fill="#c9c9c9" font-size="10.5">1.0625rem · line-height 1.6</text>
      <text x="1360" y="452" fill="#8a8a8a" font-size="10.5">Eyebrow</text><text x="1392" y="452" fill="#c9c9c9" font-size="10.5">uppercase · tracking .14em</text>
    </g>
    <line x1="1356" y1="470" x2="1584" y2="470" stroke="#3a3a3a"/>

    <!-- SPACING / RADIUS -->
    <text x="1360" y="496" fill="#9a9a9a" font-size="11" letter-spacing="1">SPACING SCALE</text>
    <g>
      <rect x="1360" y="506" width="8" height="14" fill="#3b45c7"/><text x="1374" y="517" fill="#c9c9c9" font-size="11">8</text>
      <rect x="1396" y="506" width="12" height="14" fill="#3b45c7"/><text x="1414" y="517" fill="#c9c9c9" font-size="11">12</text>
      <rect x="1440" y="506" width="16" height="14" fill="#3b45c7"/><text x="1462" y="517" fill="#c9c9c9" font-size="11">16</text>
      <rect x="1488" y="506" width="24" height="14" fill="#3b45c7"/><text x="1518" y="517" fill="#c9c9c9" font-size="11">24</text>
      <rect x="1544" y="506" width="32" height="14" fill="#3b45c7"/><text x="1582" y="517" fill="#c9c9c9" font-size="11" text-anchor="end">40·56</text>
    </g>
    <g font-size="11.5" fill="#c9c9c9">
      <text x="1360" y="546">Radius</text><text x="1584" y="546" fill="#8a8a8a" text-anchor="end">10px</text>
      <text x="1360" y="568">Container max-width</text><text x="1584" y="568" fill="#8a8a8a" text-anchor="end">1140 / 680</text>
      <text x="1360" y="590">Card border</text><text x="1584" y="590" fill="#8a8a8a" text-anchor="end">1px · --line</text>
    </g>
    <line x1="1356" y1="606" x2="1584" y2="606" stroke="#3a3a3a"/>

    <!-- LAYOUT RULES -->
    <text x="1360" y="632" fill="#9a9a9a" font-size="11" letter-spacing="1">LAYOUT &amp; BEHAVIOUR</text>
    <g font-size="11" fill="#c4c4c4">
      <text x="1360" y="654">• Header — Flexbox row, nav pushed</text>
      <text x="1372" y="669">right (margin-left:auto), sticky top</text>
      <text x="1360" y="690">• Events — CSS Grid</text>
      <text x="1372" y="705" fill="#8a8a8a">1 col → 2 col @640 → 3 col @980</text>
      <text x="1360" y="726">• Hero — radial-gradient sky</text>
      <text x="1360" y="747">• Cards/Button — transition + transform</text>
      <text x="1372" y="762" fill="#8a8a8a">on :hover; honour prefers-reduced-motion</text>
      <text x="1360" y="783">• Table — :nth-child(even) zebra</text>
    </g>
    <line x1="1356" y1="800" x2="1584" y2="800" stroke="#3a3a3a"/>

    <!-- DELIVERABLE -->
    <rect x="1356" y="816" width="228" height="120" rx="8" fill="#22343f" stroke="#2f5d49"/>
    <text x="1370" y="840" fill="#7ee0a8" font-size="11" letter-spacing="1">✔ DELIVERABLE</text>
    <g font-size="11.5" fill="#cfe7d8">
      <text x="1370" y="862" font-family="'JetBrains Mono',monospace">index.html</text>
      <text x="1370" y="882" font-family="'JetBrains Mono',monospace">styles.css</text>
      <text x="1370" y="906" fill="#9bbfa8" font-size="10.5">External CSS · valid HTML5 ·</text>
      <text x="1370" y="922" fill="#9bbfa8" font-size="10.5">responsive 320 → 1440px</text>
    </g>

    <text x="1360" y="966" fill="#6f6f6f" font-size="10.5">Selected: ▢ Section · Events</text>
    <text x="1360" y="984" fill="#6f6f6f" font-size="10.5">W 1140 · H hug · Grid · Gap 16</text>
  </g>
</svg>
